<svg id="visual" viewBox="0 0 900 600" width="900" height="600" xmlns="http://www.w3.org/2000/svg" xmlns:xlink="http://www.w3.org/1999/xlink" version="1.1"><rect x="0" y="0" width="900" height="600" fill="#001220"></rect><defs><linearGradient id="grad1_0" x1="33.3%" y1="0%" x2="100%" y2="100%"><stop offset="20%" stop-color="#001220" stop-opacity="1"></stop><stop offset="80%" stop-color="#001220" stop-opacity="1"></stop></linearGradient></defs><defs><linearGradient id="grad2_0" x1="0%" y1="0%" x2="66.7%" y2="100%"><stop offset="20%" stop-color="#001220" stop-opacity="1"></stop><stop offset="80%" stop-color="#001220" stop-opacity="1"></stop></linearGradient></defs><g transform="translate(900, 0)"><path d="M0 378.6C-41.8 355.9 -83.6 333.2 -132 318.7C-180.5 304.3 -235.6 298.1 -267.7 267.7C-299.8 237.3 -308.7 182.6 -323.4 133.9C-338 85.3 -358.3 42.6 -378.6 0L0 0Z" fill="#FBAE3C"></path></g><g transform="translate(0, 600)"><path d="M0 -378.6C35.6 -341.8 71.2 -305.1 121.3 -292.9C171.4 -280.6 236 -292.9 267.7 -267.7C299.4 -242.5 298.3 -179.8 311.3 -129C324.4 -78.1 351.5 -39.1 378.6 0L0 0Z" fill="#FBAE3C"></path></g></svg>